<svg width="55" height="55" viewBox="0 0 55 55" fill="none" xmlns="http://www.w3.org/2000/svg">
<path d="M2.87025 0.111531C1.75283 0.326421 0.785825 1.08928 0.302324 2.12075C0.0659452 2.62574 0.0122228 2.88361 0.0122228 3.59274C0.0122228 5.25814 -0.718402 4.43081 11.5625 16.701L22.4145 27.5529L11.4658 38.5123C2.58015 47.4195 0.48498 49.5684 0.280835 50.0089C-0.0844775 50.7717 -0.0952219 52.147 0.259346 52.9099C0.570936 53.5868 1.25858 54.2959 1.94623 54.6612C2.71983 55.0588 3.95545 55.1125 4.84724 54.7902C5.47042 54.5538 5.85722 54.1885 16.4835 43.5729L27.4644 32.6028L38.4022 43.5192C47.1805 52.2867 49.4368 54.4893 49.8666 54.6935C50.3179 54.9084 50.565 54.9513 51.4245 54.9513C52.3163 54.9513 52.5097 54.9084 52.9825 54.6612C53.6487 54.3174 54.3685 53.5546 54.6801 52.8777C55.0239 52.147 55.0025 50.761 54.6479 50.0089C54.4437 49.5684 52.3486 47.4195 43.4629 38.5123L32.5143 27.5529L43.3662 16.701C55.6471 4.43081 54.9165 5.25814 54.9165 3.59274C54.9165 2.89435 54.8628 2.62574 54.6371 2.14224C53.7668 0.294187 51.5857 -0.457926 49.7592 0.44461C49.4798 0.584288 45.5581 4.42007 38.4022 11.5759L27.4644 22.503L16.5372 11.5759C9.37066 4.42007 5.44893 0.584288 5.16957 0.44461C4.80426 0.261954 3.61162 -0.0388914 3.40748 0.00408652C3.37524 0.014831 3.12812 0.0578089 2.87025 0.111531Z" fill="#C2C7D9"/>
</svg>
