<svg width="287" height="127" viewBox="0 0 287 127" fill="none" xmlns="http://www.w3.org/2000/svg">
<path d="M1 51.0998V2.2998H23C28.2 2.2998 32.3 3.6998 35.3 6.4998C38.3 9.2998 39.8 13.1998 39.8 17.9998C39.8 22.7998 38.3 26.5998 35.3 29.4998C32.3 32.2998 28.2 33.6998 23 33.6998H6.5V51.0998H1ZM6.5 28.4998H22.6C26.4 28.4998 29.3 27.5998 31.3 25.6998C33.3 23.7998 34.3 21.2998 34.3 17.9998C34.3 14.7998 33.3 12.1998 31.3 10.2998C29.3 8.3998 26.4 7.4998 22.6 7.4998H6.5V28.4998Z" fill="white" stroke="white" stroke-miterlimit="10"/>
<path d="M46.0996 51.1002V14.2002H51.5996V23.3002C51.7996 22.7002 52.1996 21.8002 52.6996 20.8002C53.2996 19.7002 54.0996 18.7002 55.1996 17.6002C56.2996 16.5002 57.5996 15.6002 59.2996 14.8002C60.8996 14.0002 62.8996 13.7002 65.1996 13.7002H65.5996V19.2002H64.8996C62.0996 19.2002 59.7996 20.0002 57.7996 21.4002C55.7996 22.9002 54.2996 24.8002 53.1996 27.2002C52.0996 29.6002 51.5996 32.1002 51.5996 34.8002V51.0002H46.0996V51.1002Z" fill="white" stroke="white" stroke-miterlimit="10"/>
<path d="M86.6004 51.7002C82.9004 51.7002 79.6004 50.9002 76.9004 49.2002C74.1004 47.5002 72.0004 45.2002 70.6004 42.3002C69.1004 39.4002 68.4004 36.2002 68.4004 32.7002C68.4004 29.2002 69.1004 26.0002 70.6004 23.1002C72.1004 20.2002 74.2004 17.9002 76.9004 16.2002C79.7004 14.5002 82.9004 13.7002 86.6004 13.7002C90.4004 13.7002 93.6004 14.5002 96.4004 16.2002C99.1004 17.9002 101.2 20.2002 102.7 23.1002C104.2 26.0002 104.9 29.2002 104.9 32.7002C104.9 36.2002 104.2 39.4002 102.7 42.3002C101.2 45.2002 99.1004 47.5002 96.4004 49.2002C93.7004 50.8002 90.4004 51.7002 86.6004 51.7002ZM86.6004 46.7002C89.4004 46.7002 91.7004 46.1002 93.6004 44.8002C95.5004 43.5002 96.9004 41.8002 97.9004 39.7002C98.9004 37.6002 99.4004 35.2002 99.4004 32.7002C99.4004 30.1002 98.9004 27.8002 97.9004 25.7002C96.9004 23.6002 95.5004 21.9002 93.6004 20.6002C91.7004 19.3002 89.4004 18.7002 86.6004 18.7002C83.9004 18.7002 81.6004 19.3002 79.7004 20.6002C77.8004 21.9002 76.3004 23.6002 75.3004 25.7002C74.3004 27.8002 73.8004 30.2002 73.8004 32.7002C73.8004 35.2002 74.3004 37.5002 75.3004 39.7002C76.3004 41.8002 77.7004 43.5002 79.7004 44.8002C81.6004 46.0002 83.9004 46.7002 86.6004 46.7002Z" fill="white" stroke="white" stroke-miterlimit="10"/>
<path d="M112.199 65.7001V14.2001H117.699V20.1001C119.099 18.1001 120.899 16.5001 122.999 15.3001C125.199 14.1001 127.799 13.6001 130.899 13.6001C134.499 13.6001 137.599 14.4001 140.299 16.1001C142.999 17.8001 145.099 20.1001 146.499 23.0001C147.999 25.9001 148.699 29.1001 148.699 32.6001C148.699 36.1001 147.999 39.3001 146.499 42.2001C144.999 45.1001 142.899 47.4001 140.299 49.1001C137.599 50.8001 134.499 51.6001 130.899 51.6001C127.899 51.6001 125.199 51.0001 122.999 49.8001C120.799 48.6001 118.999 47.0001 117.699 45.0001V65.6001H112.199V65.7001ZM130.199 46.7001C132.999 46.7001 135.299 46.1001 137.199 44.8001C139.099 43.5001 140.599 41.8001 141.699 39.7001C142.699 37.6001 143.199 35.2001 143.199 32.7001C143.199 30.1001 142.699 27.8001 141.699 25.7001C140.699 23.6001 139.199 21.9001 137.199 20.6001C135.299 19.3001 132.899 18.7001 130.199 18.7001C127.499 18.7001 125.199 19.3001 123.299 20.6001C121.399 21.9001 119.899 23.6001 118.899 25.7001C117.899 27.8001 117.399 30.2001 117.399 32.7001C117.399 35.2001 117.899 37.5001 118.899 39.7001C119.899 41.8001 121.299 43.5001 123.299 44.8001C125.199 46.0001 127.499 46.7001 130.199 46.7001Z" fill="white" stroke="white" stroke-miterlimit="10"/>
<path d="M172.5 51.7002C168.8 51.7002 165.5 50.9002 162.7 49.2002C159.9 47.5002 157.7 45.2002 156.2 42.3002C154.7 39.4002 153.9 36.2002 153.9 32.7002C153.9 29.2002 154.6 26.0002 156.1 23.1002C157.6 20.2002 159.7 17.9002 162.4 16.2002C165.2 14.5002 168.4 13.7002 172.1 13.7002C175.9 13.7002 179.1 14.5002 181.9 16.2002C184.6 17.9002 186.7 20.2002 188.2 23.1002C189.7 26.0002 190.4 29.2002 190.4 32.7002V34.9002H159.5C159.8 37.1002 160.5 39.0002 161.6 40.8002C162.7 42.6002 164.2 44.0002 166.1 45.1002C168 46.2002 170.1 46.7002 172.6 46.7002C175.2 46.7002 177.4 46.1002 179.2 45.0002C181 43.8002 182.3 42.4002 183.3 40.5002H189.3C188 43.8002 186 46.5002 183.2 48.6002C180.4 50.6002 176.9 51.7002 172.5 51.7002ZM159.6 29.7002H184.7C184.2 26.6002 182.9 23.9002 180.7 21.8002C178.5 19.7002 175.7 18.6002 172.1 18.6002C168.5 18.6002 165.7 19.7002 163.6 21.8002C161.5 23.9002 160.1 26.5002 159.6 29.7002Z" fill="white" stroke="white" stroke-miterlimit="10"/>
<path d="M197.199 51.1002V14.2002H202.699V23.3002C202.899 22.7002 203.299 21.8002 203.799 20.8002C204.399 19.7002 205.199 18.7002 206.299 17.6002C207.399 16.5002 208.699 15.6002 210.399 14.8002C211.999 14.0002 213.999 13.7002 216.299 13.7002H216.699V19.2002H215.999C213.199 19.2002 210.899 20.0002 208.899 21.4002C206.899 22.9002 205.399 24.8002 204.299 27.2002C203.199 29.6002 202.699 32.1002 202.699 34.8002V51.0002H197.199V51.1002Z" fill="white" stroke="white" stroke-miterlimit="10"/>
<path d="M230.301 51.1V19.1H222.801V14.2H230.301V1H235.801V14.2H244.301V19.1H235.801V51.1H230.301Z" fill="white" stroke="white" stroke-miterlimit="10"/>
<path d="M257.9 65.7002L264.6 50.6002L249.6 14.2002H255.7L267.5 44.4002L279.6 14.2002H285.6L263.8 65.7002H257.9Z" fill="white" stroke="white" stroke-miterlimit="10"/>
<path d="M174.601 111.7C171.001 111.7 167.901 110.9 165.201 109.2C162.501 107.5 160.401 105.2 159.001 102.3C157.501 99.4002 156.801 96.2002 156.801 92.7002C156.801 89.2002 157.501 86.0002 159.001 83.1002C160.501 80.2002 162.601 77.9002 165.201 76.2002C167.801 74.5002 171.001 73.7002 174.601 73.7002C177.601 73.7002 180.301 74.3002 182.501 75.5002C184.701 76.7002 186.501 78.3002 187.801 80.3002V74.3002H193.301V111.2H187.801V105.3C186.401 107.3 184.601 108.8 182.501 110C180.301 111.1 177.701 111.7 174.601 111.7ZM175.401 106.7C178.201 106.7 180.501 106.1 182.401 104.8C184.301 103.5 185.701 101.8 186.701 99.7002C187.701 97.6002 188.201 95.2002 188.201 92.7002C188.201 90.1002 187.701 87.8002 186.701 85.7002C185.701 83.6002 184.301 81.9002 182.401 80.6002C180.501 79.3002 178.201 78.7002 175.401 78.7002C172.701 78.7002 170.401 79.3002 168.401 80.6002C166.401 81.9002 164.901 83.6002 163.901 85.7002C162.901 87.8002 162.401 90.2002 162.401 92.7002C162.401 95.2002 162.901 97.5002 163.901 99.7002C164.901 101.8 166.401 103.5 168.401 104.8C170.301 106 172.701 106.7 175.401 106.7Z" fill="white" stroke="white" stroke-miterlimit="10"/>
<path d="M202.9 125.7V74.2001H208.4V80.1001C209.8 78.1001 211.6 76.5001 213.7 75.3001C215.9 74.1001 218.5 73.6001 221.6 73.6001C225.2 73.6001 228.3 74.4001 231 76.1001C233.7 77.8001 235.8 80.1001 237.2 83.0001C238.7 85.9001 239.4 89.1001 239.4 92.6001C239.4 96.1001 238.7 99.3001 237.2 102.2C235.7 105.1 233.6 107.4 231 109.1C228.3 110.8 225.2 111.6 221.6 111.6C218.6 111.6 215.9 111 213.7 109.8C211.5 108.6 209.7 107 208.4 105V125.6H202.9V125.7ZM220.9 106.7C223.7 106.7 226 106.1 227.9 104.8C229.8 103.5 231.3 101.8 232.4 99.7001C233.5 97.6001 233.9 95.2001 233.9 92.7001C233.9 90.1001 233.4 87.8001 232.4 85.7001C231.4 83.6001 229.9 81.9001 227.9 80.6001C226 79.3001 223.6 78.7001 220.9 78.7001C218.2 78.7001 215.9 79.3001 214 80.6001C212.1 81.9001 210.6 83.6001 209.6 85.7001C208.6 87.8001 208.1 90.2001 208.1 92.7001C208.1 95.2001 208.6 97.5001 209.6 99.7001C210.6 101.8 212 103.5 214 104.8C215.9 106 218.2 106.7 220.9 106.7Z" fill="white" stroke="white" stroke-miterlimit="10"/>
<path d="M246.801 125.7V74.2001H252.301V80.1001C253.701 78.1001 255.501 76.5001 257.601 75.3001C259.801 74.1001 262.401 73.6001 265.501 73.6001C269.101 73.6001 272.201 74.4001 274.901 76.1001C277.601 77.8001 279.701 80.1001 281.101 83.0001C282.601 85.9001 283.301 89.1001 283.301 92.6001C283.301 96.1001 282.601 99.3001 281.101 102.2C279.601 105.1 277.501 107.4 274.901 109.1C272.201 110.8 269.101 111.6 265.501 111.6C262.501 111.6 259.801 111 257.601 109.8C255.401 108.6 253.601 107 252.301 105V125.6H246.801V125.7ZM264.801 106.7C267.601 106.7 269.901 106.1 271.801 104.8C273.701 103.5 275.201 101.8 276.301 99.7001C277.401 97.6001 277.801 95.2001 277.801 92.7001C277.801 90.1001 277.301 87.8001 276.301 85.7001C275.301 83.6001 273.801 81.9001 271.801 80.6001C269.901 79.3001 267.501 78.7001 264.801 78.7001C262.101 78.7001 259.801 79.3001 257.901 80.6001C256.001 81.9001 254.501 83.6001 253.501 85.7001C252.501 87.8001 252.001 90.2001 252.001 92.7001C252.001 95.2001 252.501 97.5001 253.501 99.7001C254.501 101.8 255.901 103.5 257.901 104.8C259.801 106 262.101 106.7 264.801 106.7Z" fill="white" stroke="white" stroke-miterlimit="10"/>
</svg>
