<svg width="14" height="20" viewBox="0 0 14 20" fill="none" xmlns="http://www.w3.org/2000/svg">
<path d="M8.81318 0.315333C8.16785 0.111467 7.48145 0 6.76865 0C4.68891 0 2.82771 0.940133 1.58691 2.41707L4.78425 5.10693L8.81318 0.315333Z" fill="#1A73E8"/>
<path d="M1.58547 2.41699C0.596933 3.59326 0 5.11126 0 6.76712C0 8.04019 0.253733 9.07126 0.670267 9.99526L4.7828 5.10686L1.58547 2.41699Z" fill="#EA4335"/>
<path d="M6.76858 4.17997C8.19858 4.17997 9.35725 5.33864 9.35725 6.76864C9.35725 7.40517 9.12698 7.98891 8.74565 8.43917C8.74565 8.43917 10.7902 6.00744 12.7746 3.64904C11.9547 2.07237 10.5335 0.859441 8.81458 0.315308L4.78271 5.10691C5.25791 4.53931 5.97072 4.17997 6.76858 4.17997Z" fill="#4285F4"/>
<path d="M6.76881 9.35587C5.33881 9.35587 4.18014 8.1972 4.18014 6.7672C4.18014 6.13507 4.40748 5.55574 4.78294 5.10547L0.67041 9.99533C1.37294 11.5544 2.54188 12.8055 3.74601 14.3821L8.74441 8.4392C8.27068 8.99947 7.56081 9.35587 6.76881 9.35587Z" fill="#FBBC04"/>
<path d="M8.64598 16.0042C10.9032 12.474 13.5358 10.8709 13.5358 6.76718C13.5358 5.64225 13.2601 4.58185 12.7746 3.64905L3.74731 14.3821C4.13011 14.8837 4.51585 15.4176 4.89278 16.0057C6.26558 18.1265 5.88425 19.3981 6.77011 19.3981C7.65305 19.3981 7.27318 18.125 8.64598 16.0042Z" fill="#34A853"/>
</svg>
