<svg width="28" height="21" viewBox="0 0 28 21" fill="none" xmlns="http://www.w3.org/2000/svg">
<path d="M1.54167 18.433H26.4583C26.6285 18.433 26.7917 18.3654 26.9121 18.2451C27.0324 18.1247 27.1 17.9615 27.1 17.7913V11.2913C27.1 10.5465 26.8041 9.83221 26.2775 9.30555C25.7508 8.77888 25.0365 8.48301 24.2917 8.48301H3.70833C2.96352 8.48301 2.24921 8.77888 1.72254 9.30555C1.19588 9.83221 0.9 10.5465 0.9 11.2913V17.7913C0.9 17.9615 0.967604 18.1247 1.08794 18.2451C1.20828 18.3654 1.37149 18.433 1.54167 18.433ZM25.8167 11.2913V17.1497H2.18333V11.2913C2.18333 10.8869 2.344 10.499 2.63 10.213C2.91599 9.92701 3.30388 9.76634 3.70833 9.76634H24.2917C24.6961 9.76634 25.084 9.92701 25.37 10.213C25.656 10.499 25.8167 10.8869 25.8167 11.2913Z" fill="#5C727D" stroke="#5C727D" stroke-width="0.2"/>
<path d="M3.70768 9.76667H24.291C24.4612 9.76667 24.6244 9.69906 24.7447 9.57873C24.8651 9.45839 24.9327 9.29518 24.9327 9.125V1.54167C24.9327 1.37149 24.8651 1.20828 24.7447 1.08794C24.6244 0.967604 24.4612 0.9 24.291 0.9H3.70768C3.5375 0.9 3.37429 0.967604 3.25396 1.08794C3.13362 1.20828 3.06602 1.37149 3.06602 1.54167V9.125C3.06602 9.29518 3.13362 9.45839 3.25396 9.57873C3.37429 9.69906 3.5375 9.76667 3.70768 9.76667ZM23.6493 2.18333V8.48333H4.34935V2.18333H23.6493Z" fill="#5C727D" stroke="#5C727D" stroke-width="0.2"/>
<path d="M1.54167 13.5583H26.4583C26.6285 13.5583 26.7917 13.4907 26.9121 13.3704C27.0324 13.2501 27.1 13.0868 27.1 12.9167C27.1 12.7465 27.0324 12.5833 26.9121 12.4629C26.7917 12.3426 26.6285 12.275 26.4583 12.275H1.54167C1.37149 12.275 1.20828 12.3426 1.08794 12.4629C0.967604 12.5833 0.9 12.7465 0.9 12.9167C0.9 13.0868 0.967604 13.2501 1.08794 13.3704C1.20828 13.4907 1.37149 13.5583 1.54167 13.5583Z" fill="#5C727D" stroke="#5C727D" stroke-width="0.2"/>
<path d="M1.54167 20.6H3.70833C3.87851 20.6 4.04172 20.5324 4.16206 20.4121C4.2824 20.2917 4.35 20.1285 4.35 19.9583V17.7917C4.35 17.6215 4.2824 17.4583 4.16206 17.3379C4.04172 17.2176 3.87851 17.15 3.70833 17.15H1.54167C1.37149 17.15 1.20828 17.2176 1.08794 17.3379C0.967604 17.4583 0.9 17.6215 0.9 17.7917V19.9583C0.9 20.1285 0.967604 20.2917 1.08794 20.4121C1.20828 20.5324 1.37149 20.6 1.54167 20.6ZM3.06667 18.4333V19.3167H2.18333V18.4333H3.06667Z" fill="#5C727D" stroke="#5C727D" stroke-width="0.2"/>
<path d="M24.2917 20.6H26.4583C26.6285 20.6 26.7917 20.5324 26.9121 20.4121C27.0324 20.2917 27.1 20.1285 27.1 19.9583V17.7917C27.1 17.6215 27.0324 17.4583 26.9121 17.3379C26.7917 17.2176 26.6285 17.15 26.4583 17.15H24.2917C24.1215 17.15 23.9583 17.2176 23.8379 17.3379C23.7176 17.4583 23.65 17.6215 23.65 17.7917V19.9583C23.65 20.1285 23.7176 20.2917 23.8379 20.4121C23.9583 20.5324 24.1215 20.6 24.2917 20.6ZM25.8167 18.4333V19.3167H24.9333V18.4333H25.8167Z" fill="#5C727D" stroke="#5C727D" stroke-width="0.2"/>
<path d="M6.41667 9.76634H12.375C12.5452 9.76634 12.7084 9.69874 12.8287 9.5784C12.9491 9.45807 13.0167 9.29485 13.0167 9.12467V6.95801C13.0167 6.50051 12.8349 6.06175 12.5114 5.73825C12.1879 5.41475 11.7492 5.23301 11.2917 5.23301H7.5C7.0425 5.23301 6.60374 5.41475 6.28024 5.73825C5.95674 6.06175 5.775 6.50051 5.775 6.95801V9.12467C5.775 9.29485 5.8426 9.45807 5.96294 9.5784C6.08328 9.69874 6.24649 9.76634 6.41667 9.76634ZM11.7333 6.95801V8.48301H7.05833V6.95801C7.05833 6.84087 7.10487 6.72853 7.18769 6.6457C7.27052 6.56287 7.38286 6.51634 7.5 6.51634H11.2917C11.4088 6.51634 11.5211 6.56287 11.604 6.6457C11.6868 6.72853 11.7333 6.84087 11.7333 6.95801Z" fill="#5C727D" stroke="#5C727D" stroke-width="0.2"/>
<path d="M15.6257 9.76634H21.584C21.7542 9.76634 21.9174 9.69874 22.0377 9.5784C22.158 9.45807 22.2257 9.29485 22.2257 9.12467V6.95801C22.2257 6.50051 22.0439 6.06175 21.7204 5.73825C21.3969 5.41475 20.9581 5.23301 20.5007 5.23301H16.709C16.2515 5.23301 15.8127 5.41475 15.4892 5.73825C15.1657 6.06175 14.984 6.50051 14.984 6.95801V9.12467C14.984 9.29485 15.0516 9.45807 15.1719 9.5784C15.2923 9.69874 15.4555 9.76634 15.6257 9.76634ZM20.9423 6.95801V8.48301H16.2673V6.95801C16.2673 6.84087 16.3139 6.72853 16.3967 6.6457C16.4795 6.56287 16.5918 6.51634 16.709 6.51634H20.5007C20.6178 6.51634 20.7301 6.56287 20.813 6.6457C20.8958 6.72853 20.9423 6.84087 20.9423 6.95801Z" fill="#5C727D" stroke="#5C727D" stroke-width="0.2"/>
</svg>
