<svg width="25" height="21" viewBox="0 0 25 21" fill="none" xmlns="http://www.w3.org/2000/svg">
<path d="M16.0306 16.8716C15.8267 16.5403 15.3679 16.4129 15.0366 16.6167C14.7053 16.8206 14.5779 17.2794 14.7818 17.6107L15.1641 18.2223C15.2915 18.4517 15.5463 18.5791 15.7757 18.5791C15.9031 18.5791 16.0306 18.5536 16.158 18.4772C16.4893 18.2733 16.6167 17.8146 16.4128 17.4832L16.0306 16.8716Z" fill="#5C727D"/>
<path d="M14.7565 14.7812L14.3997 14.1441C14.1958 13.8127 13.7371 13.6853 13.4058 13.8892C13.0745 14.0931 12.947 14.5518 13.1509 14.8831L13.5332 15.4948C13.6606 15.7242 13.9155 15.8516 14.1449 15.8516C14.2723 15.8516 14.3997 15.8261 14.5271 15.7496C14.8584 15.5712 14.9859 15.1125 14.7565 14.7812Z" fill="#5C727D"/>
<path d="M13.1257 12.0545L12.7435 11.4429C12.5396 11.1116 12.0808 10.9841 11.7495 11.188C11.4182 11.3919 11.2908 11.8507 11.4947 12.182L11.877 12.7936C12.0044 13.023 12.2592 13.1504 12.4886 13.1504C12.616 13.1504 12.7435 13.1249 12.8709 13.0485C13.2277 12.8446 13.3296 12.4113 13.1257 12.0545Z" fill="#5C727D"/>
<path d="M16.4376 11.927C16.1828 11.6212 15.724 11.5957 15.4182 11.8505C15.1124 12.1054 15.0869 12.5641 15.3417 12.8699L15.8005 13.4306C15.9534 13.609 16.1573 13.6855 16.3611 13.6855C16.5141 13.6855 16.6925 13.6345 16.8199 13.5071C17.1257 13.2522 17.1512 12.7935 16.8963 12.4877L16.4376 11.927Z" fill="#5C727D"/>
<path d="M14.4493 9.58225C14.1945 9.27643 13.7357 9.25094 13.4299 9.5058C13.1241 9.76065 13.0986 10.2194 13.3535 10.5252L13.8122 11.0859C13.9651 11.2643 14.169 11.3407 14.3729 11.3407C14.5513 11.3407 14.7042 11.2898 14.8316 11.1623C15.1374 10.9075 15.1629 10.4488 14.9081 10.1429L14.4493 9.58225Z" fill="#5C727D"/>
<path d="M18.4513 14.2717C18.1964 13.9659 17.7377 13.9404 17.4319 14.1952C17.126 14.4501 17.1006 14.9088 17.3554 15.2147L17.8141 15.7753C17.9671 15.9537 18.1709 16.0302 18.3748 16.0302C18.5532 16.0302 18.7061 15.9792 18.8336 15.8518C19.1394 15.5969 19.1649 15.1382 18.91 14.8324L18.4513 14.2717Z" fill="#5C727D"/>
<path d="M15.7504 9.30259C15.8778 9.43002 16.0562 9.48099 16.2091 9.48099C16.413 9.48099 16.6169 9.40454 16.7698 9.22614C17.0246 8.92031 16.9991 8.46158 16.6933 8.20672L16.1326 7.74798C15.8268 7.49313 15.3681 7.51861 15.1132 7.82444C14.8584 8.13026 14.8838 8.589 15.1897 8.84386L15.7504 9.30259Z" fill="#5C727D"/>
<path d="M20.8475 11.6982C20.5417 11.4433 20.0829 11.4688 19.8281 11.7746C19.5732 12.0805 19.5987 12.5392 19.9045 12.7941L20.4652 13.2528C20.5926 13.3802 20.771 13.4312 20.9239 13.4312C21.1278 13.4312 21.3317 13.3547 21.4846 13.1763C21.7395 12.8705 21.714 12.4118 21.4082 12.1569L20.8475 11.6982Z" fill="#5C727D"/>
<path d="M18.5018 9.7099C18.1959 9.45504 17.7372 9.48053 17.4824 9.78635C17.2275 10.0922 17.253 10.5509 17.5588 10.8058L18.1195 11.2645C18.2469 11.3919 18.4253 11.4429 18.5782 11.4429C18.7821 11.4429 18.986 11.3665 19.1389 11.1881C19.3938 10.8822 19.3683 10.4235 19.0625 10.1686L18.5018 9.7099Z" fill="#5C727D"/>
<path d="M20.4138 9.14904C20.5412 9.2255 20.6686 9.25098 20.7961 9.25098C21.0509 9.25098 21.2803 9.12356 21.4077 8.89419C21.6116 8.56288 21.5097 8.10414 21.1529 7.90026L20.5412 7.51798C20.2099 7.31409 19.7512 7.41603 19.5473 7.77283C19.3434 8.10414 19.4453 8.56288 19.8021 8.76676L20.4138 9.14904Z" fill="#5C727D"/>
<path d="M16.8207 6.11613C16.6168 6.44744 16.7188 6.90618 17.0756 7.11006L17.6872 7.49234C17.8146 7.5688 17.9421 7.59429 18.0695 7.59429C18.3244 7.59429 18.5537 7.46686 18.6811 7.23749C18.885 6.90618 18.7831 6.44744 18.4263 6.24356L17.8146 5.86128C17.4833 5.68288 17.0501 5.78482 16.8207 6.11613Z" fill="#5C727D"/>
<path d="M23.854 9.55748L23.2424 9.1752C22.9111 8.97132 22.4523 9.07326 22.2484 9.43006C22.0446 9.76137 22.1465 10.2201 22.5033 10.424L23.1149 10.8063C23.2424 10.8827 23.3698 10.9082 23.4972 10.9082C23.7521 10.9082 23.9815 10.7808 24.1089 10.5514C24.3128 10.1946 24.2108 9.76137 23.854 9.55748Z" fill="#5C727D"/>
<path d="M17.1262 3.18568C16.0049 2.06432 14.5267 1.45267 12.9721 1.45267C11.6723 1.45267 10.449 1.88592 9.4551 2.65049L8.15534 1.37621C7.23786 0.484223 6.06553 0 4.79126 0C2.14078 0 0 2.14078 0 4.79126V20.1845C0 20.6432 0.356796 21 0.815534 21C1.24879 21 1.63107 20.6432 1.63107 20.1845V4.76578C1.63107 3.03277 3.03277 1.60558 4.79126 1.60558C5.63228 1.60558 6.42233 1.93689 7.0085 2.52306L8.28277 3.79733C6.54976 6.09102 6.70267 9.40413 8.79248 11.4939C8.94539 11.6468 9.14927 11.7233 9.37864 11.7233C9.58252 11.7233 9.78641 11.6468 9.96481 11.4939L17.1517 4.30704C17.4575 4.00121 17.4575 3.4915 17.1262 3.18568ZM9.42961 9.70995C8.30825 8.0534 8.48665 5.78519 9.93932 4.30704C10.7549 3.49151 11.8252 3.05825 12.9466 3.05825C13.8131 3.05825 14.6286 3.31311 15.3167 3.79733L9.42961 9.70995Z" fill="#5C727D"/>
</svg>
