<svg width="23" height="19" viewBox="0 0 23 19" fill="none" xmlns="http://www.w3.org/2000/svg">
<path d="M8.12632 11.5103L7.2811 10.665L5.3089 12.6372C5.07412 12.872 5.07412 13.2477 5.3089 13.4825L7.2811 15.4547L8.12632 14.6094L7.16371 13.6468H10.3568V12.4494H7.16371L8.12632 11.5103Z" fill="#5C727D"/>
<path d="M15.0288 10.665L14.1836 11.5103L15.1462 12.4729H11.9531V13.6703H15.1462L14.1836 14.6329L15.0288 15.4781L17.001 13.5059C17.2358 13.2712 17.2358 12.8955 17.001 12.6607L15.0288 10.665Z" fill="#5C727D"/>
<path d="M22.1656 7.519L11.342 0.0528267C11.2246 -0.0176089 11.0838 -0.0176089 10.9664 0.0528267L0.142774 7.519C0.00190259 7.61291 -0.0450544 7.82422 0.0488597 7.98857L0.494952 8.62249C0.541909 8.69292 0.612344 8.73988 0.706258 8.76336C0.800173 8.78684 0.870608 8.76336 0.964522 8.7164L2.6315 7.56596V18.6713C2.6315 18.8591 2.77237 19 2.9602 19H3.73499C3.92282 19 4.06369 18.8591 4.06369 18.6713V6.8616C4.06369 6.67377 4.1576 6.48594 4.32195 6.39203L10.8255 1.90763C10.9194 1.8372 11.0368 1.81372 11.1542 1.81372C11.2716 1.81372 11.389 1.8372 11.4829 1.90763L17.9865 6.39203C18.1508 6.50942 18.2447 6.67377 18.2447 6.8616V18.6713C18.2447 18.8591 18.3856 19 18.5734 19H19.3482C19.536 19 19.6769 18.8591 19.6769 18.6713V7.54248L21.3439 8.69292C21.4143 8.73988 21.5082 8.76336 21.6021 8.73988C21.6961 8.7164 21.7665 8.66945 21.8135 8.59901L22.2595 7.96509C22.3065 7.89466 22.33 7.80074 22.3065 7.70683C22.283 7.63639 22.2361 7.56596 22.1656 7.519Z" fill="#5C727D"/>
</svg>
