<svg width="23" height="23" viewBox="0 0 23 23" fill="none" xmlns="http://www.w3.org/2000/svg">
<g clip-path="url(#clip0_10959_2738)">
<path d="M21.2 10.8V6.69999C21.2 4.19999 19.3 2.09999 16.8 2.09999H6.4C3.9 1.99999 2 4.19999 2 6.69999V10.8C1.4 11.1 1 11.7 1 12.4V19.5C1 20.5 1.8 21.3 2.8 21.3H4.7C5.6 21.3 6.4 20.6 6.5 19.6H16.7C16.8 20.5 17.5 21.3 18.5 21.3H20.4C21.4 21.3 22.2 20.5 22.2 19.5V12.4C22.2 11.7 21.8 11.1 21.2 10.8ZM5.3 12.2V12.3V19.4C5.3 19.8 5 20 4.7 20H2.8C2.5 20 2.2 19.7 2.2 19.4V12.3V12.2C2.2 12.1 2.2 12.1 2.3 12C2.3 12 2.3 11.9 2.4 11.9C2.4 11.9 2.5 11.9 2.5 11.8C2.6 11.7 2.7 11.7 2.8 11.7H4.7C4.8 11.7 4.8 11.7 4.9 11.7C5 11.7 5 11.7 5.1 11.8C5.1 11.8 5.2 11.9 5.2 12C5.3 12.1 5.3 12.1 5.3 12.2ZM16.8 18.4H6.5V16.5H16.7V18.4H16.8ZM16.8 15.3H6.5V12.6H16.7V15.3H16.8ZM17 11.5H6.3C6 11 5.4 10.6 4.7 10.6H3.2V6.69999C3.2 4.79999 4.6 3.19999 6.4 3.19999H16.9C18.7 3.19999 20.1 4.79999 20.1 6.69999V10.6H18.5C17.8 10.6 17.3 11 17 11.5ZM21 19.5C21 19.9 20.7 20.1 20.4 20.1H18.5C18.2 20.1 17.9 19.8 17.9 19.5V12.4C17.9 12.1 18.2 11.8 18.5 11.8H20.4C20.7 11.8 21 12.1 21 12.4V19.5Z" fill="#1E1E1E" stroke="#1E1E1E" stroke-width="0.25"/>
</g>
<defs>
<clipPath id="clip0_10959_2738">
<rect width="23" height="23" fill="white"/>
</clipPath>
</defs>
</svg>
