<svg width="25" height="25" viewBox="0 0 25 25" fill="none" xmlns="http://www.w3.org/2000/svg">
<path d="M12.3722 0C5.55017 0 0 5.55017 0 12.3722C0 19.1942 5.55017 24.7443 12.3722 24.7443C19.1942 24.7443 24.7443 19.1942 24.7443 12.3722C24.7443 5.55017 19.1942 0 12.3722 0V0ZM12.3722 23.0158C6.50417 23.0158 1.72851 18.2398 1.72851 12.3722C1.72851 6.50417 6.50433 1.72851 12.3722 1.72851C18.24 1.72851 23.0158 6.50433 23.0158 12.3722C23.0158 18.24 18.24 23.0158 12.3722 23.0158Z" fill="black"/>
<path d="M14.0462 5.17808H9.44413C8.97023 5.17808 8.58008 5.56801 8.58008 6.04213V19.8481C8.58008 20.322 8.97001 20.7122 9.44413 20.7122C9.91803 20.7122 10.3082 20.3223 10.3082 19.8481V13.812H14.0462C16.4282 13.812 18.3602 11.8739 18.3602 9.49798C18.3602 7.12203 16.4222 5.17798 14.0462 5.17798L14.0462 5.17808ZM14.0462 12.0839H10.3081V6.90608H14.0462C15.4741 6.90608 16.6381 8.07006 16.6381 9.49798C16.6381 10.9262 15.4681 12.0841 14.0462 12.0841V12.0839Z" fill="black"/>
</svg>
