<?xml version="1.0" encoding="utf-8"?>
<!-- Generator: Adobe Illustrator 24.3.0, SVG Export Plug-In . SVG Version: 6.00 Build 0)  -->
<svg version="1.1" id="Layer_1" xmlns="http://www.w3.org/2000/svg" xmlns:xlink="http://www.w3.org/1999/xlink" x="0px" y="0px"
	 viewBox="0 0 25 21" style="enable-background:new 0 0 25 21;" xml:space="preserve">
<style type="text/css">
	.st0{fill:#B7B7B7;stroke:#B7B7B7;stroke-width:0.25;}
	.st1{opacity:0.35;fill:#1400F8;}
</style>
<path class="st0" d="M22.1,9.7V5.5c0-2.5-1.9-4.6-4.4-4.6H7.3C4.8,0.9,2.9,3,2.9,5.5v4.1c-0.6,0.3-1,0.9-1,1.6v7.1
	c0,1,0.8,1.8,1.8,1.8h1.9c0.9,0,1.7-0.7,1.8-1.7h10.2c0.1,0.9,0.8,1.7,1.8,1.7h1.9c1,0,1.8-0.8,1.8-1.8v-7.1
	C23.1,10.5,22.7,10,22.1,9.7z M6.2,11.1c0,0,0,0.1,0,0.1v7.1C6.2,18.7,6,19,5.6,19H3.7c-0.3,0-0.6-0.3-0.6-0.6v-7.1c0,0,0-0.1,0-0.1
	c0-0.1,0-0.1,0.1-0.2c0,0,0-0.1,0.1-0.1c0,0,0.1,0,0.1-0.1c0.1-0.1,0.2-0.1,0.3-0.1h1.9c0.1,0,0.1,0,0.2,0c0.1,0,0.1,0,0.2,0.1
	c0,0,0.1,0.1,0.1,0.2C6.2,10.9,6.2,11,6.2,11.1L6.2,11.1 M5.6,10.6 M17.6,17.3H7.4v-1.9h10.2V17.3z M17.6,14.2H7.4v-2.7h10.2V14.2z
	 M17.8,10.4H7.2C6.9,9.8,6.3,9.5,5.6,9.5H4.1V5.5c0-1.9,1.4-3.5,3.2-3.5h10.5c1.8,0,3.2,1.6,3.2,3.5v3.9h-1.6
	C18.7,9.5,18.1,9.8,17.8,10.4z M21.9,18.3c0,0.4-0.3,0.6-0.6,0.6h-1.9c-0.3,0-0.6-0.3-0.6-0.6v-7.1c0-0.3,0.3-0.6,0.6-0.6h1.9
	c0.3,0,0.6,0.3,0.6,0.6V18.3z"/>
<path class="st1" d="M5.6,10.6"/>
<line class="st1" x1="6.2" y1="11.1" x2="6.2" y2="11.1"/>
</svg>
