<svg width="18" height="26" viewBox="0 0 18 26" fill="none" xmlns="http://www.w3.org/2000/svg">
<path d="M8.98759 12.3289C8.95192 12.3289 8.92814 12.3289 8.89248 12.3289C8.83303 12.317 8.74981 12.317 8.67847 12.3289C5.23065 12.2219 2.62695 9.51123 2.62695 6.17041C2.62695 2.77015 5.3971 0 8.79736 0C12.1976 0 14.9678 2.77015 14.9678 6.17041C14.9559 9.51123 12.3403 12.2219 9.02325 12.3289C9.01137 12.3289 8.99948 12.3289 8.98759 12.3289ZM8.79736 1.78336C6.38389 1.78336 4.41031 3.75694 4.41031 6.17041C4.41031 8.54822 6.265 10.4624 8.63092 10.5456C8.69036 10.5337 8.85681 10.5337 9.01137 10.5456C11.3416 10.4386 13.1725 8.52444 13.1844 6.17041C13.1844 3.75694 11.2108 1.78336 8.79736 1.78336Z" fill="#071C1F"/>
<path d="M9 25.3236C6.66975 25.3236 4.32761 24.7291 2.55614 23.5402C0.903567 22.4464 0 20.9484 0 19.3196C0 17.6908 0.903567 16.1809 2.55614 15.0752C6.12285 12.7093 11.9009 12.7093 15.4439 15.0752C17.0845 16.169 18 17.667 18 19.2958C18 20.9246 17.0964 22.4345 15.4439 23.5402C13.6605 24.7291 11.3303 25.3236 9 25.3236ZM3.54293 16.5732C2.40159 17.3341 1.78336 18.309 1.78336 19.3315C1.78336 20.3421 2.41347 21.317 3.54293 22.066C6.5033 24.0514 11.4967 24.0514 14.4571 22.066C15.5984 21.3051 16.2166 20.3302 16.2166 19.3077C16.2166 18.2971 15.5865 17.3222 14.4571 16.5732C11.4967 14.5997 6.5033 14.5997 3.54293 16.5732Z" fill="#071C1F"/>
</svg>
