<svg width="21" height="21" viewBox="0 0 21 21" fill="none" xmlns="http://www.w3.org/2000/svg">
<path d="M11.375 19.9062H4.375C2.2575 19.9062 1.09375 18.7425 1.09375 16.625V9.625C1.09375 7.5075 2.2575 6.34375 4.375 6.34375H8.75C9.10875 6.34375 9.40625 6.64125 9.40625 7V16.625C9.40625 18.0075 9.9925 18.5938 11.375 18.5938C11.7338 18.5938 12.0313 18.8912 12.0313 19.25C12.0313 19.6088 11.7338 19.9062 11.375 19.9062ZM4.375 7.65625C2.9925 7.65625 2.40625 8.2425 2.40625 9.625V16.625C2.40625 18.0075 2.9925 18.5938 4.375 18.5938H8.57499C8.25999 18.0775 8.09375 17.4213 8.09375 16.625V7.65625H4.375Z" fill="#071C1F"/>
<path d="M8.75 7.65625H4.375C4.01625 7.65625 3.71875 7.35875 3.71875 7V5.25C3.71875 3.92 4.795 2.84375 6.125 2.84375H8.84624C9.04749 2.84375 9.24001 2.93998 9.36251 3.09748C9.48501 3.26373 9.52874 3.47375 9.47624 3.66625C9.42374 3.85875 9.40625 4.0775 9.40625 4.375V7C9.40625 7.35875 9.10875 7.65625 8.75 7.65625ZM5.03125 6.34375H8.09375V4.375C8.09375 4.29625 8.09375 4.22625 8.09375 4.15625H6.125C5.52125 4.15625 5.03125 4.64625 5.03125 5.25V6.34375Z" fill="#071C1F"/>
<path d="M12.25 12.0312C11.8913 12.0312 11.5938 11.7337 11.5938 11.375V7C11.5938 6.64125 11.8913 6.34375 12.25 6.34375C12.6087 6.34375 12.9062 6.64125 12.9062 7V11.375C12.9062 11.7337 12.6087 12.0312 12.25 12.0312Z" fill="#071C1F"/>
<path d="M15.75 12.0312C15.3913 12.0312 15.0938 11.7337 15.0938 11.375V7C15.0938 6.64125 15.3913 6.34375 15.75 6.34375C16.1087 6.34375 16.4062 6.64125 16.4062 7V11.375C16.4062 11.7337 16.1087 12.0312 15.75 12.0312Z" fill="#071C1F"/>
<path d="M15.75 19.9062H12.25C11.8913 19.9062 11.5938 19.6087 11.5938 19.25V15.75C11.5938 14.91 12.285 14.2188 13.125 14.2188H14.875C15.715 14.2188 16.4062 14.91 16.4062 15.75V19.25C16.4062 19.6087 16.1087 19.9062 15.75 19.9062ZM12.9062 18.5938H15.0938V15.75C15.0938 15.6275 14.9975 15.5312 14.875 15.5312H13.125C13.0025 15.5312 12.9062 15.6275 12.9062 15.75V18.5938Z" fill="#071C1F"/>
<path d="M5.25 15.5312C4.89125 15.5312 4.59375 15.2337 4.59375 14.875V11.375C4.59375 11.0163 4.89125 10.7188 5.25 10.7188C5.60875 10.7188 5.90625 11.0163 5.90625 11.375V14.875C5.90625 15.2337 5.60875 15.5312 5.25 15.5312Z" fill="#071C1F"/>
<path d="M16.625 19.9062H11.375C9.2575 19.9062 8.09375 18.7425 8.09375 16.625V4.375C8.09375 2.2575 9.2575 1.09375 11.375 1.09375H16.625C18.7425 1.09375 19.9062 2.2575 19.9062 4.375V16.625C19.9062 18.7425 18.7425 19.9062 16.625 19.9062ZM11.375 2.40625C9.9925 2.40625 9.40625 2.9925 9.40625 4.375V16.625C9.40625 18.0075 9.9925 18.5937 11.375 18.5937H16.625C18.0075 18.5937 18.5938 18.0075 18.5938 16.625V4.375C18.5938 2.9925 18.0075 2.40625 16.625 2.40625H11.375Z" fill="#071C1F"/>
</svg>
