<svg width="23" height="23" viewBox="0 0 23 23" fill="none" xmlns="http://www.w3.org/2000/svg">
<path d="M20.5031 7.37814L20.5028 7.37788L13.8616 2.0687C12.5318 1.0049 10.4577 0.994394 9.13638 2.05933L2.4955 7.37783C2.49547 7.37785 2.49545 7.37787 2.49542 7.37789C2.00422 7.76988 1.61399 8.3563 1.37189 8.99333C1.1298 9.63034 1.03259 10.3265 1.13675 10.9417C1.13676 10.9418 1.13677 10.9418 1.13677 10.9419L2.41131 18.5699C2.41132 18.5699 2.41132 18.5699 2.41132 18.5699C2.7069 20.3433 4.33957 21.7201 6.13245 21.7201H16.8658C18.6302 21.7201 20.2913 20.3143 20.5869 18.5702L20.5869 18.5699L21.8615 10.9416L21.8616 10.9411C21.9608 10.3261 21.8612 9.63017 21.6192 8.99333C21.3771 8.3565 20.9894 7.77015 20.5031 7.37814ZM10.1622 3.3463C10.1622 3.34625 10.1623 3.3462 10.1624 3.34615C10.5155 3.06557 11.0002 2.91763 11.4895 2.91763C11.9882 2.91763 12.4733 3.06544 12.8364 3.3466C12.8366 3.34675 12.8368 3.34691 12.837 3.34706L19.4769 8.65517C19.477 8.65522 19.477 8.65527 19.4771 8.65532C19.7275 8.85662 19.9487 9.19419 20.0931 9.5702C20.2374 9.94627 20.2996 10.3469 20.2459 10.6691C20.2459 10.6691 20.2459 10.6691 20.2459 10.6691L18.9714 18.2971C18.807 19.2652 17.8421 20.0826 16.8658 20.0826H6.13245C5.15595 20.0826 4.19124 19.265 4.02688 18.3067C4.02687 18.3066 4.02687 18.3066 4.02686 18.3066L2.75235 10.6787C2.75235 10.6787 2.75235 10.6786 2.75234 10.6786C2.69861 10.3561 2.75858 9.95775 2.90166 9.58321C3.0447 9.20874 3.2659 8.87096 3.5214 8.66473C3.52144 8.6647 3.52147 8.66467 3.52151 8.66464L10.1622 3.3463Z" fill="#292D32" stroke="#292D32" stroke-width="0.2"/>
<path d="M8.28477 12.4583C8.28477 14.229 9.7287 15.6729 11.4993 15.6729C13.27 15.6729 14.7139 14.229 14.7139 12.4583C14.7139 10.6877 13.27 9.24375 11.4993 9.24375C9.7287 9.24375 8.28477 10.6877 8.28477 12.4583ZM9.92227 12.4583C9.92227 11.5936 10.6346 10.8813 11.4993 10.8813C12.3641 10.8813 13.0764 11.5936 13.0764 12.4583C13.0764 13.3231 12.3641 14.0354 11.4993 14.0354C10.6346 14.0354 9.92227 13.3231 9.92227 12.4583Z" fill="#292D32" stroke="#292D32" stroke-width="0.2"/>
</svg>
