<svg width="19" height="17" viewBox="0 0 19 17" fill="none" xmlns="http://www.w3.org/2000/svg">
<path d="M17.9143 16.1641C17.9143 16.3857 17.8285 16.5983 17.6759 16.7552C17.5231 16.9119 17.316 17 17.1 17H2.44273C2.2267 17.0004 2.01918 16.9126 1.86614 16.7557C1.71311 16.5988 1.62712 16.3859 1.62712 16.1641C1.62712 15.9421 1.71311 15.7292 1.86614 15.5723C2.01918 15.4154 2.2267 15.3275 2.44273 15.328H17.1C17.316 15.328 17.5231 15.4161 17.6759 15.5727C17.8285 15.7297 17.9143 15.9423 17.9143 16.1641V16.1641ZM19 1.11477V12.8197C19 13.1154 18.8855 13.399 18.682 13.608C18.4783 13.8171 18.2023 13.9345 17.9143 13.9345H1.08572C0.797739 13.9345 0.52166 13.8171 0.317985 13.608C0.114506 13.399 0 13.1154 0 12.8197V1.11477C0 0.819082 0.114511 0.535449 0.317985 0.326492C0.521677 0.117351 0.797734 0 1.08572 0H17.9143C18.2023 0 18.4783 0.117357 18.682 0.326492C18.8855 0.535415 19 0.819077 19 1.11477ZM5.42872 3.34431C5.42872 3.71386 5.57175 4.0683 5.82631 4.32945C6.08066 4.59082 6.42589 4.73768 6.78579 4.73768C7.14592 4.73768 7.49091 4.59082 7.74548 4.32945C8.00004 4.0683 8.14307 3.71383 8.14307 3.34431C8.14307 2.97479 8.00004 2.62032 7.74548 2.35894C7.49092 2.09756 7.1459 1.95071 6.78579 1.95071C6.42587 1.95093 6.08082 2.09757 5.82631 2.35894C5.5718 2.62031 5.42872 2.97479 5.42872 3.34431ZM15.8228 10.4746L12.2481 5.11034C12.0966 4.88262 11.8446 4.74713 11.576 4.74888C11.3072 4.75041 11.0569 4.88896 10.9078 5.11843L7.52852 10.3231L6.17782 7.8272C6.0384 7.56933 5.77618 7.40696 5.48904 7.4004C5.2017 7.39384 4.93266 7.5442 4.78217 7.7953L3.15287 10.5137C3.0356 10.7095 2.99026 10.9418 3.02495 11.1691C3.05964 11.3962 3.17224 11.6031 3.34251 11.7524C3.51257 11.9019 3.72925 11.984 3.95316 11.984H15.0474C15.2764 11.984 15.4978 11.8979 15.6696 11.7423C15.8411 11.5865 15.9516 11.3717 15.9797 11.1383C16.008 10.9047 15.9522 10.6686 15.8228 10.4746L15.8228 10.4746Z" fill="white"/>
</svg>
