<?xml version="1.0" encoding="utf-8"?>
<!-- Generator: Adobe Illustrator 24.3.0, SVG Export Plug-In . SVG Version: 6.00 Build 0)  -->
<svg version="1.1" id="Layer_1" xmlns="http://www.w3.org/2000/svg" xmlns:xlink="http://www.w3.org/1999/xlink" x="0px" y="0px"
	 viewBox="0 0 285.9 125.7" style="enable-background:new 0 0 285.9 125.7;" xml:space="preserve">
<style type="text/css">
	.st0{fill:#008BF0;stroke:#008BF0;stroke-miterlimit:10;}
</style>
<g>
	<path class="st0" d="M0.5,50.6V1.8h22c5.2,0,9.3,1.4,12.3,4.2c3,2.8,4.5,6.7,4.5,11.5c0,4.8-1.5,8.6-4.5,11.5
		c-3,2.8-7.1,4.2-12.3,4.2H6v17.4H0.5z M6,28h16.1c3.8,0,6.7-0.9,8.7-2.8c2-1.9,3-4.4,3-7.7c0-3.2-1-5.8-3-7.7
		c-2-1.9-4.9-2.8-8.7-2.8H6V28z"/>
	<path class="st0" d="M45.6,50.6V13.7h5.5v9.1c0.2-0.6,0.6-1.5,1.1-2.5c0.6-1.1,1.4-2.1,2.5-3.2c1.1-1.1,2.4-2,4.1-2.8
		c1.6-0.8,3.6-1.1,5.9-1.1h0.4v5.5h-0.7c-2.8,0-5.1,0.8-7.1,2.2c-2,1.5-3.5,3.4-4.6,5.8c-1.1,2.4-1.6,4.9-1.6,7.6v16.2H45.6z"/>
	<path class="st0" d="M86.1,51.2c-3.7,0-7-0.8-9.7-2.5c-2.8-1.7-4.9-4-6.3-6.9c-1.5-2.9-2.2-6.1-2.2-9.6c0-3.5,0.7-6.7,2.2-9.6
		c1.5-2.9,3.6-5.2,6.3-6.9c2.8-1.7,6-2.5,9.7-2.5c3.8,0,7,0.8,9.8,2.5c2.7,1.7,4.8,4,6.3,6.9c1.5,2.9,2.2,6.1,2.2,9.6
		c0,3.5-0.7,6.7-2.2,9.6c-1.5,2.9-3.6,5.2-6.3,6.9C93.2,50.3,89.9,51.2,86.1,51.2z M86.1,46.2c2.8,0,5.1-0.6,7-1.9
		c1.9-1.3,3.3-3,4.3-5.1c1-2.1,1.5-4.5,1.5-7c0-2.6-0.5-4.9-1.5-7c-1-2.1-2.4-3.8-4.3-5.1c-1.9-1.3-4.2-1.9-7-1.9
		c-2.7,0-5,0.6-6.9,1.9c-1.9,1.3-3.4,3-4.4,5.1c-1,2.1-1.5,4.5-1.5,7c0,2.5,0.5,4.8,1.5,7c1,2.1,2.4,3.8,4.4,5.1
		C81.1,45.5,83.4,46.2,86.1,46.2z"/>
	<path class="st0" d="M111.7,65.2V13.7h5.5v5.9c1.4-2,3.2-3.6,5.3-4.8c2.2-1.2,4.8-1.7,7.9-1.7c3.6,0,6.7,0.8,9.4,2.5
		c2.7,1.7,4.8,4,6.2,6.9c1.5,2.9,2.2,6.1,2.2,9.6c0,3.5-0.7,6.7-2.2,9.6c-1.5,2.9-3.6,5.2-6.2,6.9c-2.7,1.7-5.8,2.5-9.4,2.5
		c-3,0-5.7-0.6-7.9-1.8c-2.2-1.2-4-2.8-5.3-4.8v20.6H111.7z M129.7,46.2c2.8,0,5.1-0.6,7-1.9c1.9-1.3,3.4-3,4.5-5.1
		c1-2.1,1.5-4.5,1.5-7c0-2.6-0.5-4.9-1.5-7c-1-2.1-2.5-3.8-4.5-5.1c-1.9-1.3-4.3-1.9-7-1.9c-2.7,0-5,0.6-6.9,1.9
		c-1.9,1.3-3.4,3-4.4,5.1c-1,2.1-1.5,4.5-1.5,7c0,2.5,0.5,4.8,1.5,7c1,2.1,2.4,3.8,4.4,5.1C124.7,45.5,127,46.2,129.7,46.2z"/>
	<path class="st0" d="M172,51.2c-3.7,0-7-0.8-9.8-2.5c-2.8-1.7-5-4-6.5-6.9c-1.5-2.9-2.3-6.1-2.3-9.6c0-3.5,0.7-6.7,2.2-9.6
		c1.5-2.9,3.6-5.2,6.3-6.9c2.8-1.7,6-2.5,9.7-2.5c3.8,0,7,0.8,9.8,2.5c2.7,1.7,4.8,4,6.3,6.9c1.5,2.9,2.2,6.1,2.2,9.6v2.2H159
		c0.3,2.2,1,4.1,2.1,5.9c1.1,1.8,2.6,3.2,4.5,4.3c1.9,1.1,4,1.6,6.5,1.6c2.6,0,4.8-0.6,6.6-1.7c1.8-1.2,3.1-2.6,4.1-4.5h6
		c-1.3,3.3-3.3,6-6.1,8.1C179.9,50.1,176.4,51.2,172,51.2z M159.1,29.2h25.1c-0.5-3.1-1.8-5.8-4-7.9c-2.2-2.1-5-3.2-8.6-3.2
		s-6.4,1.1-8.5,3.2C161,23.4,159.6,26,159.1,29.2z"/>
	<path class="st0" d="M196.7,50.6V13.7h5.5v9.1c0.2-0.6,0.6-1.5,1.1-2.5c0.6-1.1,1.4-2.1,2.5-3.2c1.1-1.1,2.4-2,4.1-2.8
		c1.6-0.8,3.6-1.1,5.9-1.1h0.4v5.5h-0.7c-2.8,0-5.1,0.8-7.1,2.2c-2,1.5-3.5,3.4-4.6,5.8c-1.1,2.4-1.6,4.9-1.6,7.6v16.2H196.7z"/>
	<path class="st0" d="M229.8,50.6v-32h-7.5v-4.9h7.5V0.5h5.5v13.2h8.5v4.9h-8.5v32H229.8z"/>
	<path class="st0" d="M257.4,65.2l6.7-15.1l-15-36.4h6.1L267,43.9l12.1-30.2h6l-21.8,51.5H257.4z"/>
	<path class="st0" d="M174.1,111.2c-3.6,0-6.7-0.8-9.4-2.5s-4.8-4-6.2-6.9c-1.5-2.9-2.2-6.1-2.2-9.6c0-3.5,0.7-6.7,2.2-9.6
		c1.5-2.9,3.6-5.2,6.2-6.9s5.8-2.5,9.4-2.5c3,0,5.7,0.6,7.9,1.8c2.2,1.2,4,2.8,5.3,4.8v-6h5.5v36.9h-5.5v-5.9
		c-1.4,2-3.2,3.5-5.3,4.7C179.8,110.6,177.2,111.2,174.1,111.2z M174.9,106.2c2.8,0,5.1-0.6,7-1.9c1.9-1.3,3.3-3,4.3-5.1
		c1-2.1,1.5-4.5,1.5-7c0-2.6-0.5-4.9-1.5-7c-1-2.1-2.4-3.8-4.3-5.1c-1.9-1.3-4.2-1.9-7-1.9c-2.7,0-5,0.6-7,1.9c-2,1.3-3.5,3-4.5,5.1
		c-1,2.1-1.5,4.5-1.5,7c0,2.5,0.5,4.8,1.5,7c1,2.1,2.5,3.8,4.5,5.1C169.8,105.5,172.2,106.2,174.9,106.2z"/>
	<path class="st0" d="M202.4,125.2V73.7h5.5v5.9c1.4-2,3.2-3.6,5.3-4.8c2.2-1.2,4.8-1.7,7.9-1.7c3.6,0,6.7,0.8,9.4,2.5
		c2.7,1.7,4.8,4,6.2,6.9c1.5,2.9,2.2,6.1,2.2,9.6c0,3.5-0.7,6.7-2.2,9.6c-1.5,2.9-3.6,5.2-6.2,6.9c-2.7,1.7-5.8,2.5-9.4,2.5
		c-3,0-5.7-0.6-7.9-1.8c-2.2-1.2-4-2.8-5.3-4.8v20.6H202.4z M220.4,106.2c2.8,0,5.1-0.6,7-1.9c1.9-1.3,3.4-3,4.5-5.1s1.5-4.5,1.5-7
		c0-2.6-0.5-4.9-1.5-7c-1-2.1-2.5-3.8-4.5-5.1c-1.9-1.3-4.3-1.9-7-1.9c-2.7,0-5,0.6-6.9,1.9c-1.9,1.3-3.4,3-4.4,5.1
		c-1,2.1-1.5,4.5-1.5,7c0,2.5,0.5,4.8,1.5,7c1,2.1,2.4,3.8,4.4,5.1C215.4,105.5,217.7,106.2,220.4,106.2z"/>
	<path class="st0" d="M246.3,125.2V73.7h5.5v5.9c1.4-2,3.2-3.6,5.3-4.8c2.2-1.2,4.8-1.7,7.9-1.7c3.6,0,6.7,0.8,9.4,2.5
		c2.7,1.7,4.8,4,6.2,6.9c1.5,2.9,2.2,6.1,2.2,9.6c0,3.5-0.7,6.7-2.2,9.6c-1.5,2.9-3.6,5.2-6.2,6.9c-2.7,1.7-5.8,2.5-9.4,2.5
		c-3,0-5.7-0.6-7.9-1.8c-2.2-1.2-4-2.8-5.3-4.8v20.6H246.3z M264.3,106.2c2.8,0,5.1-0.6,7-1.9c1.9-1.3,3.4-3,4.5-5.1s1.5-4.5,1.5-7
		c0-2.6-0.5-4.9-1.5-7c-1-2.1-2.5-3.8-4.5-5.1c-1.9-1.3-4.3-1.9-7-1.9c-2.7,0-5,0.6-6.9,1.9c-1.9,1.3-3.4,3-4.4,5.1
		c-1,2.1-1.5,4.5-1.5,7c0,2.5,0.5,4.8,1.5,7c1,2.1,2.4,3.8,4.4,5.1C259.3,105.5,261.6,106.2,264.3,106.2z"/>
</g>
</svg>
