<svg width="19" height="18" viewBox="0 0 19 18" fill="none" xmlns="http://www.w3.org/2000/svg">
<path d="M11.7088 6.44358C11.6354 6.38966 11.5416 6.36428 11.4478 6.37322C11.3538 6.38216 11.2677 6.42454 11.2084 6.49115C11.0845 6.62985 11.108 6.83342 11.2608 6.94572C11.3397 7.00469 11.3868 7.09163 11.3902 7.18433C11.3935 7.27704 11.3528 7.36657 11.2785 7.43015C11.1352 7.55227 11.128 7.757 11.2625 7.88719C11.3971 8.01738 11.6224 8.02387 11.7658 7.90161C11.9884 7.71044 12.1098 7.44154 12.0989 7.16329C12.0879 6.88517 11.9458 6.62479 11.7088 6.44833L11.7088 6.44358Z" fill="#505050"/>
<path d="M12.9927 8.52025C13.254 8.14018 13.394 7.68895 13.394 7.22686C13.394 6.76462 13.254 6.3134 12.9927 5.93333C12.8833 5.81726 12.7061 5.79886 12.5754 5.88986C12.4448 5.981 12.3996 6.15445 12.4689 6.29849C12.6554 6.56989 12.7553 6.89201 12.7553 7.22197C12.7553 7.55193 12.6554 7.87402 12.4689 8.14545C12.3828 8.29079 12.422 8.47829 12.559 8.57638C12.696 8.67433 12.8848 8.64999 12.9927 8.5203L12.9927 8.52025Z" fill="#505050"/>
<path d="M14.06 7.21578C14.0601 7.74231 13.9253 8.25936 13.6694 8.71307C13.6031 8.8662 13.6584 9.04669 13.7975 9.13123C13.9366 9.21563 14.1143 9.17657 14.209 9.04069C14.5225 8.48593 14.6879 7.85348 14.6879 7.20919C14.6879 6.56505 14.5225 5.9326 14.209 5.37784C14.1725 5.2933 14.1033 5.22894 14.0188 5.20071C13.9342 5.17248 13.8422 5.18287 13.7655 5.22953C13.6887 5.27604 13.6344 5.35443 13.6161 5.44512C13.5978 5.5358 13.6171 5.63043 13.6694 5.70547C13.9274 6.16299 14.0624 6.68483 14.06 7.21578L14.06 7.21578Z" fill="#505050"/>
<path d="M16.7377 12.1922V5.18837C16.7403 4.73318 16.5607 4.29568 16.2381 3.97159C15.9156 3.6475 15.4764 3.46329 15.017 3.45947H3.89848C3.43907 3.46328 2.99985 3.64749 2.67738 3.97159C2.35474 4.29569 2.17512 4.73318 2.17776 5.18837V12.1922C2.1751 12.6474 2.35474 13.0849 2.67738 13.409C2.99986 13.7331 3.43907 13.9173 3.89848 13.9211H15.017C15.4764 13.9173 15.9156 13.7331 16.2381 13.409C16.5607 13.0849 16.7403 12.6474 16.7377 12.1922ZM2.83958 12.1922V5.18837C2.83648 4.907 2.94624 4.63587 3.14478 4.43468C3.34332 4.23335 3.6144 4.11834 3.89849 4.11497H15.017C15.3011 4.11834 15.5721 4.23335 15.7707 4.43468C15.9692 4.63587 16.079 4.90698 16.0759 5.18837V12.1922C16.079 12.4736 15.9692 12.7447 15.7707 12.9459C15.5721 13.1472 15.3011 13.2622 15.017 13.2656H3.89849C3.61442 13.2622 3.34332 13.1472 3.14478 12.9459C2.94624 12.7447 2.83648 12.4736 2.83958 12.1922Z" fill="#505050"/>
<path d="M4.55012 9.71485H7.13856C7.22436 9.71485 7.30669 9.67934 7.36736 9.61614C7.42802 9.55295 7.46211 9.46718 7.46211 9.37781V7.35559C7.46211 7.26622 7.42802 7.18045 7.36736 7.11726C7.30669 7.05406 7.22436 7.01855 7.13856 7.01855H4.55012C4.37144 7.01855 4.22656 7.16947 4.22656 7.35559V9.37781C4.22656 9.46718 4.26065 9.55295 4.32132 9.61614C4.38198 9.67934 4.46432 9.71485 4.55012 9.71485ZM4.87367 7.69263H6.815V9.04077H4.87367V7.69263Z" fill="#505050"/>
<path d="M5.96049 11.3326H4.54182C4.36773 11.3326 4.22656 11.4775 4.22656 11.6562C4.22656 11.8349 4.36773 11.9798 4.54182 11.9798H5.96049C6.13458 11.9798 6.27574 11.8349 6.27574 11.6562C6.27574 11.4775 6.13458 11.3326 5.96049 11.3326Z" fill="#505050"/>
<path d="M8.76468 11.3326H7.34602C7.17193 11.3326 7.03076 11.4775 7.03076 11.6562C7.03076 11.8349 7.17193 11.9798 7.34602 11.9798H8.76468C8.93878 11.9798 9.07994 11.8349 9.07994 11.6562C9.07994 11.4775 8.93878 11.3326 8.76468 11.3326Z" fill="#505050"/>
<path d="M11.5689 11.3326H10.1502C9.97612 11.3326 9.83496 11.4775 9.83496 11.6562C9.83496 11.8349 9.97612 11.9798 10.1502 11.9798H11.5689C11.743 11.9798 11.8841 11.8349 11.8841 11.6562C11.8841 11.4775 11.743 11.3326 11.5689 11.3326Z" fill="#505050"/>
<path d="M14.3741 11.3326H12.9554C12.7813 11.3326 12.6401 11.4775 12.6401 11.6562C12.6401 11.8349 12.7813 11.9798 12.9554 11.9798H14.3741C14.5482 11.9798 14.6893 11.8349 14.6893 11.6562C14.6893 11.4775 14.5482 11.3326 14.3741 11.3326Z" fill="#505050"/>
<path d="M4.55012 6.04793H8.43278C8.61145 6.04793 8.75633 5.90305 8.75633 5.72437C8.75633 5.5457 8.61145 5.40082 8.43278 5.40082H4.55012C4.37144 5.40082 4.22656 5.5457 4.22656 5.72437C4.22656 5.90305 4.37144 6.04793 4.55012 6.04793Z" fill="#505050"/>
<path d="M1.21515 3.8909C1.30315 3.8909 1.3876 3.85593 1.44982 3.79371C1.51204 3.73149 1.547 3.64704 1.547 3.55904V0.779793H4.32626C4.50952 0.779793 4.65811 0.631199 4.65811 0.447941C4.65811 0.264683 4.50952 0.116089 4.32626 0.116089H1.21515C1.03189 0.116089 0.883301 0.264683 0.883301 0.447941V3.55904C0.883301 3.64704 0.918264 3.73149 0.980486 3.79371C1.04271 3.85593 1.12715 3.8909 1.21515 3.8909Z" fill="#505050"/>
<path d="M0.883301 16.9326C0.883301 17.0206 0.918264 17.1051 0.980486 17.1673C1.04271 17.2295 1.12715 17.2645 1.21515 17.2645H4.32626C4.50952 17.2645 4.65811 17.1159 4.65811 16.9326C4.65811 16.7494 4.50952 16.6008 4.32626 16.6008H1.547V13.8215C1.547 13.6383 1.39841 13.4897 1.21515 13.4897C1.03189 13.4897 0.883301 13.6383 0.883301 13.8215V16.9326Z" fill="#505050"/>
<path d="M18.0316 13.8215C18.0316 13.6383 17.8831 13.4897 17.6998 13.4897C17.5165 13.4897 17.3679 13.6383 17.3679 13.8215V16.6008H14.5887C14.4054 16.6008 14.2568 16.7494 14.2568 16.9326C14.2568 17.1159 14.4054 17.2645 14.5887 17.2645H17.6998C17.7878 17.2645 17.8722 17.2295 17.9345 17.1673C17.9967 17.1051 18.0316 17.0206 18.0316 16.9326V13.8215Z" fill="#505050"/>
<path d="M18.0316 0.447941C18.0316 0.359941 17.9967 0.275495 17.9345 0.213274C17.8722 0.151053 17.7878 0.116089 17.6998 0.116089H14.5887C14.4054 0.116089 14.2568 0.264683 14.2568 0.447941C14.2568 0.631199 14.4054 0.779793 14.5887 0.779793H17.3679V3.55904C17.3679 3.7423 17.5165 3.8909 17.6998 3.8909C17.8831 3.8909 18.0316 3.7423 18.0316 3.55904V0.447941Z" fill="#505050"/>
</svg>
