<svg width="58" height="58" viewBox="0 0 58 58" fill="none" xmlns="http://www.w3.org/2000/svg">
<rect width="58" height="58" rx="6" fill="#02D06B"/>
<path d="M38.2556 19.6328C35.9174 17.2891 32.8036 16 29.4944 16C22.6641 16 17.106 21.558 17.106 28.3884C17.106 30.5703 17.6752 32.702 18.7578 34.5826L17 41L23.5681 39.2757C25.3761 40.2634 27.4129 40.7824 29.4888 40.7824H29.4944C36.3192 40.7824 42 35.2243 42 28.394C42 25.0848 40.5937 21.9766 38.2556 19.6328V19.6328ZM29.4944 38.6953C27.6417 38.6953 25.8281 38.1987 24.2489 37.2612L23.875 37.0379L19.9799 38.0592L21.0179 34.2589L20.7723 33.8683C19.74 32.2277 19.1987 30.3359 19.1987 28.3884C19.1987 22.7132 23.8192 18.0926 29.5 18.0926C32.2511 18.0926 34.8348 19.1641 36.7768 21.1116C38.7187 23.0592 39.9129 25.6429 39.9074 28.394C39.9074 34.0748 35.1696 38.6953 29.4944 38.6953V38.6953ZM35.1417 30.9833C34.8348 30.827 33.3114 30.0792 33.0268 29.9788C32.7422 29.8728 32.5357 29.8225 32.3292 30.135C32.1228 30.4475 31.5313 31.1395 31.3471 31.3516C31.1685 31.558 30.9844 31.5859 30.6775 31.4297C28.8583 30.5201 27.6641 29.8058 26.4643 27.7467C26.1462 27.1998 26.7824 27.2388 27.3739 26.0558C27.4743 25.8493 27.4241 25.6708 27.346 25.5145C27.2679 25.3583 26.6484 23.8348 26.3917 23.2154C26.1406 22.6127 25.8839 22.6964 25.6942 22.6853C25.5156 22.6741 25.3092 22.6741 25.1027 22.6741C24.8962 22.6741 24.5614 22.7522 24.2768 23.0592C23.9922 23.3717 23.1942 24.1194 23.1942 25.6429C23.1942 27.1663 24.3047 28.6395 24.4554 28.846C24.6116 29.0525 26.6373 32.1775 29.7455 33.5223C31.7098 34.3705 32.4799 34.4431 33.4621 34.298C34.0592 34.2087 35.2924 33.5502 35.5491 32.8248C35.8058 32.0993 35.8058 31.4799 35.7277 31.3516C35.6551 31.2121 35.4487 31.1339 35.1417 30.9833Z" fill="white"/>
</svg>
